# xmcd CD database file
#
# Track frame offsets:
#	150
#	4110
#	24598
#	39219
#	49434
#	61500
#	77338
#	95143
#	108591
#	113834
#	130575
#
# Disc length: 2088 seconds
#
# Revision: 0
# Processed by: cddbd v1.4PL0 Copyright (c) Steve Scherf et al.
# Submitted via: CDex 1.50beta10
#
DISCID=7f08260b
DTITLE=Jean Michel Jarre - Rendez-vous
DYEAR=1986
DGENRE=New Age
TTITLE0=Jean-Michel Jarre - Premier Rendez-vous
TTITLE1=Second Rendez-vous - Second Rendez-vous - Part 1
TTITLE2=Second Rendez-vous - Second Rendez-vous - Part 2
TTITLE3=Second Rendez-vous - Second Rendez-vous - Part 3
TTITLE4=Second Rendez-vous - Second Rendez-vous - Part 4
TTITLE5=Third Rendez-vous - Troisiéme Rendez-vous 
TTITLE6=Fourth Rendez-vous - Quatriéme Rendez-vous
TTITLE7=Fifth Rendez-vous - Cinquiéme Rendez-vous - Part 1
TTITLE8=Fifth Rendez-vous - Cinquiéme Rendez-vous - Part 2
TTITLE9=Fifth Rendez-vous - Cinquiéme Rendez-vous - Part 3
TTITLE10=Last Rendez-vous - Dernier Rendez-vous
EXTD=YEAR: 1986
EXTT0=
EXTT1=
EXTT2=
EXTT3=
EXTT4=
EXTT5=
EXTT6=
EXTT7=
EXTT8=
EXTT9=
EXTT10=
PLAYORDER=
